<?xml version="1.0" encoding="UTF-8"?>
<svg id="b" data-name="Layer 2" xmlns="http://www.w3.org/2000/svg" viewBox="0 0 89.1 91.62">
  <defs>
    <style>
      .d {
        fill: #edc277;
      }

      .e {
        fill: #dd9e4a;
      }
    </style>
  </defs>
  <g id="c" data-name="Layer 2">
    <g>
      <path class="d" d="m44.3,5c13.45,0,23.59,1.46,31.99,5.19,8.95,3.98,10.17,14.7,3.87,17.1-4.96,1.89-7.29,7.62-3.76,11.85,2.65,3.18,4.71,2.26,4.71,7.35v34.97c0,2.85-2.31,5.16-5.16,5.16h-31.66s-31.16,0-31.16,0c-2.85,0-5.16-2.31-5.16-5.16v-34.97c0-5.09,2.06-4.17,4.71-7.35,3.54-4.23,1.2-9.96-3.76-11.85-6.3-2.4-5.08-13.12,3.87-17.1,8.4-3.73,18.05-5.19,31.49-5.19Z"/>
      <path class="e" d="m75.96,91.62H13.14c-5.6,0-10.16-4.56-10.16-10.16v-34.97c0-5.48,2.06-7.48,4.36-9.2.57-.43,1.02-.77,1.51-1.35.49-.58.64-1.15.47-1.79-.19-.73-.86-1.68-2.17-2.18C2.88,30.33.14,26.29,0,21.42c-.18-6.51,4.15-12.85,10.77-15.8C19.65,1.68,29.67,0,44.3,0s25.27,1.73,34.02,5.62c6.62,2.94,10.95,9.29,10.77,15.8-.13,4.87-2.87,8.91-7.16,10.54-1.31.5-1.98,1.46-2.17,2.18-.17.64-.02,1.21.47,1.79.49.59.94.93,1.51,1.35,2.3,1.72,4.36,3.72,4.36,9.2v34.97c0,5.6-4.56,10.16-10.16,10.16ZM13.03,45.53c-.02.19-.05.5-.05.96v34.97c0,.09.07.16.16.16h62.81c.09,0,.16-.07.16-.16v-34.97c0-.46-.02-.77-.05-.96-.1-.08-.21-.16-.31-.23-.78-.58-1.96-1.47-3.19-2.95-2.55-3.06-3.45-6.97-2.47-10.73,1.06-4.06,4.16-7.43,8.28-9,.19-.07.69-.26.72-1.47.05-2.02-1.44-4.88-4.84-6.39-7.41-3.29-16.65-4.76-29.96-4.76s-21.95,1.42-29.46,4.76c-3.4,1.51-4.89,4.37-4.84,6.39.03,1.21.54,1.4.72,1.47,4.13,1.58,7.23,4.94,8.29,9,.98,3.76.08,7.67-2.47,10.73-1.24,1.48-2.42,2.36-3.19,2.95-.1.07-.21.16-.31.23Z"/>
    </g>
  </g>
</svg>