<?xml version="1.0" encoding="UTF-8"?>
<svg id="b" data-name="Layer 2" xmlns="http://www.w3.org/2000/svg" viewBox="0 0 318.79 329.38">
  <defs>
    <style>
      .d {
        fill: #fff;
      }

      .e {
        fill: #f2cf3d;
      }

      .f {
        fill: #e58739;
      }

      .g {
        fill: #f4b322;
      }

      .h {
        fill: #d66f29;
      }

      .i {
        fill: #fce965;
      }
    </style>
  </defs>
  <g id="c" data-name="Layer 1">
    <g>
      <path class="h" d="m316.03,156.52c-15.19-11.56-13.19-37.39-13.17-37.63.18-2.05-.4-4.09-1.85-5.55-1.45-1.46-3.31-2.22-5.37-2.06-.82.02-19.73.05-32.19-29.4-1.17-2.78-4.01-4.49-7-4.25-3.01.24-5.52,2.37-6.24,5.3-12.43,50.37-35.18,84.27-35.41,84.6-1.72,2.53-1.6,5.88.3,8.27,1.36,1.72,3.4,2.66,5.49,2.66.83,0,1.68-.15,2.49-.46,40.1-15.29,87.27-9.04,87.74-8.97,3.15.44,6.2-1.31,7.43-4.24,1.22-2.94.31-6.33-2.22-8.26Z"/>
      <path class="f" d="m312.75,155.16c-1.49-.21-27.27-3.64-57.81.6l44.99-31.78c3.16-2.23,3.91-6.6,1.68-9.76-2.23-3.16-6.6-3.91-9.76-1.68l-50.28,35.52c7.38-15.34,15.98-36.48,22.23-61.79.93-3.75-1.37-7.55-5.12-8.47-3.75-.92-7.55,1.37-8.47,5.12-12.43,50.37-35.18,84.27-35.41,84.6-.01.02-.02.05-.04.07-.19.28-.35.57-.5.87-.02.04-.04.09-.06.14-.13.28-.24.58-.32.87-.01.03-.02.07-.03.1-.09.31-.15.63-.19.94,0,.07-.02.13-.02.2-.03.32-.05.64-.04.97,0,.03,0,.06,0,.09.01.32.05.63.11.95,0,.04.01.08.02.11.06.32.15.64.26.96.02.05.04.1.06.15.12.3.25.61.41.9,0,.01.01.02.02.03.12.22.25.43.4.63.05.06.1.12.15.18.03.04.05.08.08.12.05.07.11.12.17.19.09.11.18.21.27.31.09.1.19.19.29.28.1.1.21.19.32.28.1.08.2.16.31.23.12.08.23.17.35.25.11.07.22.13.33.2.12.07.24.14.36.2.12.06.25.11.38.16.12.05.23.1.35.15.15.05.3.09.45.14.1.03.21.07.31.09.18.04.37.07.56.1.08.01.15.03.23.04.27.03.53.05.8.05,0,0,0,0,0,0,0,0,0,0,0,0,0,0,0,0,0,0,.31,0,.61-.03.92-.07.07,0,.13-.02.2-.03.29-.05.58-.11.87-.2.07-.02.14-.05.21-.07.09-.03.19-.06.28-.09,40.04-15.27,87.15-9.05,87.74-8.97,3.83.53,7.36-2.14,7.89-5.97.53-3.83-2.14-7.36-5.97-7.9Z"/>
      <path class="h" d="m103.99,169.81c-.23-.34-22.98-34.23-35.41-84.6-.72-2.93-3.24-5.06-6.24-5.3-2.99-.23-5.83,1.47-7,4.25-12.46,29.46-31.39,29.41-32.09,29.4-2.06-.16-3.96.6-5.41,2.06s-2.08,3.49-1.91,5.54c.02.26,2.03,26.09-13.17,37.65-2.53,1.93-3.45,5.32-2.22,8.26,1.22,2.94,4.28,4.68,7.43,4.24.47-.07,47.54-6.36,87.74,8.97.81.31,1.66.46,2.49.46,2.1,0,4.13-.94,5.49-2.66,1.9-2.4,2.02-5.75.3-8.28Z"/>
      <path class="f" d="m105.06,175.1s0-.03,0-.05c.06-.34.11-.69.12-1.03,0,0,0-.02,0-.03.01-.34,0-.67-.04-1.01,0-.05-.01-.1-.02-.15-.04-.33-.11-.66-.2-.98,0-.02-.01-.04-.02-.06-.09-.31-.21-.62-.34-.92-.02-.04-.03-.07-.05-.11-.14-.31-.31-.6-.5-.89-.01-.02-.02-.04-.03-.06-.23-.34-22.98-34.23-35.41-84.6-.93-3.75-4.73-6.05-8.47-5.12-3.75.93-6.05,4.72-5.12,8.47,6.25,25.31,14.85,46.45,22.23,61.79l-50.28-35.52c-3.16-2.23-7.53-1.48-9.76,1.68-2.23,3.16-1.48,7.53,1.68,9.76l44.99,31.78c-30.54-4.25-56.33-.81-57.81-.6-3.83.53-6.5,4.07-5.97,7.9.53,3.83,4.07,6.5,7.9,5.97.47-.07,47.54-6.36,87.74,8.97.09.04.19.06.28.09.07.02.14.05.21.07.29.09.58.15.87.2.07.01.13.02.2.03.3.04.6.07.91.07,0,0,.01,0,.02,0,.05,0,.1,0,.16,0,.21,0,.43-.01.64-.04.12-.01.24-.04.35-.06.14-.02.29-.04.43-.08.14-.03.28-.08.42-.12.11-.03.23-.06.34-.1.15-.05.3-.12.45-.18.09-.04.19-.08.28-.12.15-.07.3-.16.45-.25.08-.05.17-.09.25-.15.15-.09.28-.2.42-.3.08-.06.16-.11.23-.18.13-.11.26-.22.38-.34.08-.07.15-.14.23-.22.11-.12.22-.24.33-.37.04-.05.09-.1.13-.15.02-.03.04-.06.06-.09.05-.07.12-.13.17-.21.36-.5.63-1.04.83-1.59.01-.03.02-.06.03-.09.12-.33.21-.66.28-1Z"/>
      <path class="e" d="m267.78,152.91c-6.53-26.99-22.21-47.46-43.38-60.6-11.31-24.87-35.68-42.09-63.92-42.09s-52.59,17.2-63.91,42.06c-16.02,9.94-28.89,24.08-37.04,42.06-9.03,19.18-14.83,46.11-9.07,84.65,9.53,63.84,49.59,106.16,63.47,99.88,2.72-1.23,2.93-5.85,1.88-12.45,13.57,9.94,28.71,15.94,44.68,15.94s31.52-6.16,45.23-16.34c-1.37,7.63-1.33,13.26,1.55,15.33,11.97,8.62,54.38-38.52,63.89-102.35,4.05-27.17,1.22-49.45-3.36-66.09Z"/>
      <path class="g" d="m274.56,151.15c-6.23-25.64-20.6-46.93-41.55-61.57-1.05-.74-2.13-1.45-3.21-2.15-12.81-26.2-39.07-44.21-69.32-44.21s-56.49,18-69.31,44.19c-16.56,10.72-29.67,25.64-38,43.99-11.52,24.5-14.76,54.31-9.64,88.62,4.53,30.33,15.21,53.23,23.38,67.1,10.05,17.08,21.97,30.22,32.69,36.07,8.16,4.44,13.86,3.57,17.21,2.06,2.99-1.35,4.68-3.65,5.61-6.22,12.25,6.78,25.09,10.33,38.07,10.33s25.63-3.5,37.8-10.18c.71,3.32,2.25,5.94,4.89,7.84,1.7,1.22,4.16,2.35,7.46,2.35,2.11,0,4.55-.46,7.36-1.65,19.21-8.11,51.65-51.13,60.08-107.71,3.59-24.14,2.42-47.31-3.51-68.87Zm-114.08-93.93c35.11,0,63.67,29.78,63.67,66.39s-28.56,66.39-63.67,66.39-63.67-29.78-63.67-66.39,28.56-66.39,63.67-66.39Zm103.74,160.74c-5.09,34.21-19.2,59.45-27.15,71.46-11.84,17.87-21.55,24.54-25.28,25.74-.5-5.55,3.77-20.82,6.69-31.24,3.79-13.55,8.1-28.9,9.08-41.58.3-3.85-2.58-7.22-6.43-7.52-3.87-.3-7.22,2.58-7.52,6.44-.88,11.31-4.99,25.97-8.61,38.89-2.29,8.17-4.31,15.4-5.63,21.66-12.1,8.5-25.3,13.56-38.9,13.56s-26.38-4.9-38.32-13.16c-1.07-5.5-2.72-11.87-4.46-18.53-3.58-13.74-7.63-29.31-7.44-40.64.06-3.87-3.02-7.05-6.88-7.11-3.84-.07-7.05,3.02-7.11,6.88-.22,13.25,4.09,29.8,7.89,44.4,2.24,8.59,5.18,19.91,5.29,25.05-1.19-.34-2.97-1.11-5.34-2.68-14.19-9.47-39.43-42.71-46.73-91.61-4.71-31.55-1.86-58.68,8.48-80.64.01-.03.03-.06.04-.09,4.43-9.77,10.45-18.43,17.8-25.81-.59,3.98-.89,8.05-.89,12.19,0,44.33,34.84,80.39,77.67,80.39s77.67-36.06,77.67-80.39c0-4.15-.31-8.24-.9-12.22,11.4,11.51,19.6,26.1,23.73,43.17.02.07.04.14.05.21,5.42,19.7,6.5,40.96,3.19,63.2Z"/>
      <path class="h" d="m203.53,63.87c-2.48-7.9-6.22-19.84-5.5-43.31v-.15c0-11.25-9.15-20.41-20.41-20.41h-32.96c-11.25,0-20.41,9.15-20.41,20.41l.02.42c1.16,13.9-.46,28.45-4.96,44.49l-.19.66v.69c0,3.15,1.43,6.05,3.92,7.97,2.47,1.9,5.6,2.54,8.61,1.75,13.45-3.54,44.87-4.2,59.81-.04.9.25,1.82.37,2.73.37,2.16,0,4.27-.7,6.04-2.05,2.5-1.9,3.94-4.8,3.94-7.95v-.76l-.65-2.09Z"/>
      <path class="i" d="m160.52,101.86c3.04-2.95,3.6-7.88,2.02-11.81-1.58-3.93-4.99-6.91-8.77-8.81-5.85-2.92-12.84-3.49-19.09-1.56-12.99,4.03-20.9,18.31-20.75,31.9.08,7.16,2.28,14.7,7.71,19.37s14.56,5.32,19.46.1c1.45-1.55,2.45-3.47,3.18-5.47.91-2.52,1.17-5.16,2.06-7.67s1.95-5.21,3.44-7.56c1.27-1.99,2.89-3.81,4.88-5.1,1.86-1.21,4.26-1.82,5.87-3.39Z"/>
      <ellipse class="d" cx="116.39" cy="86.88" rx="24.19" ry="16.17" transform="translate(-27.26 65.44) rotate(-28.25)"/>
      <ellipse cx="114.03" cy="82.49" rx="14.84" ry="9.92" transform="translate(-25.46 63.8) rotate(-28.25)"/>
      <ellipse class="d" cx="203.23" cy="86.88" rx="16.17" ry="24.19" transform="translate(30.51 224.79) rotate(-61.75)"/>
      <ellipse cx="205.59" cy="82.49" rx="9.92" ry="14.84" transform="translate(35.61 224.55) rotate(-61.75)"/>
      <path class="h" d="m141.48,57.67c2.44-12,2.44-33.11,2.22-39.33"/>
      <path class="f" d="m141.49,66.17c-.56,0-1.13-.06-1.71-.17-4.6-.94-7.57-5.43-6.63-10.03,2.2-10.8,2.28-31.14,2.06-37.33-.17-4.69,3.5-8.63,8.19-8.8,4.67-.16,8.63,3.5,8.8,8.19.19,5.32.34,27.94-2.39,41.33-.82,4.03-4.36,6.8-8.32,6.8Z"/>
    </g>
  </g>
</svg>