<?xml version="1.0" encoding="UTF-8"?>
<svg id="b" data-name="Layer 2" xmlns="http://www.w3.org/2000/svg" viewBox="0 0 302.59 325.08">
  <defs>
    <style>
      .d {
        fill: #fff;
      }

      .e {
        fill: #f2cf3d;
      }

      .f {
        fill: #e58739;
      }

      .g {
        fill: #f4b322;
      }

      .h {
        fill: #d66f29;
      }

      .i {
        fill: #fce965;
      }
    </style>
  </defs>
  <g id="c" data-name="Layer 1">
    <g>
      <path class="h" d="m299.83,206.42c-15.19-11.56-13.19-37.39-13.17-37.64.18-2.02-.52-4.01-1.93-5.47-1.4-1.46-3.38-2.25-5.39-2.14-.19,0-19.4.61-32.09-29.4-1.17-2.78-4-4.49-7-4.25-3.01.24-5.52,2.37-6.24,5.3-12.43,50.37-35.18,84.27-35.41,84.6-1.72,2.53-1.6,5.88.3,8.27,1.36,1.72,3.4,2.66,5.49,2.66.83,0,1.68-.15,2.49-.46,40.1-15.29,87.27-9.04,87.74-8.97,3.16.44,6.2-1.31,7.43-4.24,1.22-2.94.31-6.33-2.22-8.26Z"/>
      <path class="f" d="m296.55,205.06c-1.49-.21-27.27-3.64-57.81.6l44.99-31.78c3.16-2.23,3.91-6.6,1.68-9.76-2.23-3.16-6.6-3.91-9.76-1.68l-50.28,35.52c7.38-15.34,15.98-36.48,22.23-61.79.93-3.75-1.37-7.55-5.12-8.47-3.75-.92-7.55,1.37-8.47,5.12-12.43,50.37-35.18,84.27-35.41,84.6-1.72,2.53-1.6,5.88.29,8.28,1.36,1.72,3.4,2.66,5.49,2.66.83,0,1.68-.15,2.49-.46,40.1-15.29,87.27-9.04,87.75-8.97,3.83.53,7.36-2.14,7.89-5.97.53-3.83-2.14-7.36-5.97-7.9Z"/>
      <path class="h" d="m98.73,132.81c-.13-.39-12.65-39.24-10.71-91.09.11-3.01-1.72-5.76-4.54-6.82-2.82-1.06-6.01-.19-7.9,2.16-20.1,24.88-38.28,19.62-38.95,19.42-1.93-.72-3.98-.52-5.78.49-1.8,1.01-2.96,2.79-3.35,4.81-.05.25-5.4,25.68-23.03,32.55-2.96,1.15-4.78,4.16-4.41,7.32.36,3.16,2.81,5.68,5.96,6.13.47.07,47.54,7.06,81.87,32.82,1.24.93,2.72,1.4,4.2,1.4s2.86-.44,4.08-1.31c2.48-1.78,3.52-4.97,2.57-7.87Z"/>
      <path class="f" d="m98.73,132.81c-.13-.39-12.65-39.24-10.71-91.09.14-3.86-2.87-7.11-6.73-7.26-3.87-.15-7.11,2.87-7.26,6.73-.98,26.05,1.46,48.75,4.33,65.53l-38.54-48c-2.42-3.01-6.83-3.5-9.84-1.08-3.02,2.42-3.5,6.83-1.08,9.84l34.48,42.95c-28.19-12.5-53.92-16.31-55.41-16.52-3.83-.54-7.37,2.12-7.91,5.94-.55,3.83,2.11,7.37,5.94,7.92.47.07,47.54,7.06,81.87,32.82,1.24.93,2.72,1.4,4.2,1.4s2.86-.44,4.08-1.31c2.48-1.78,3.52-4.97,2.57-7.87Z"/>
      <path class="e" d="m245.23,130.04c-4.85-10.69-11.36-20.02-19.22-27.92-8.22-26.8-31.05-47.29-59.79-50.28-23.61-2.46-45.75,7.47-60.42,24.69-33.85,10.42-59.89,35.16-68.83,72.08-4.58,16.64-7.41,38.92-3.36,66.09,9.51,63.84,51.92,110.97,63.89,102.35,1.79-1.29,2.48-3.96,2.42-7.62,8.1,4.44,16.77,7.33,25.92,8.27,23.13,2.38,45.82-8.08,65.13-25.29-2.78,11.6-4.05,20.4-.14,22.17,13.88,6.28,53.94-36.05,63.47-99.88,5.76-38.54-.04-65.48-9.07-84.65Z"/>
      <path class="g" d="m251.59,127.11c-4.89-10.78-11.43-20.38-19.36-28.64-2.88-8.75-7.25-16.99-13.02-24.38-13.02-16.68-31.58-27.06-52.27-29.21-25.24-2.63-49,7.63-65.13,25.59-10.9,3.54-21.02,8.48-30.08,14.82-20.95,14.65-35.32,35.94-41.55,61.57-5.92,21.56-7.1,44.73-3.51,68.87,8.43,56.58,40.87,99.6,60.08,107.71,2.81,1.19,5.26,1.65,7.36,1.65,3.3,0,5.76-1.13,7.46-2.35,1.28-.92,2.29-2.01,3.08-3.27,6.63,2.72,13.47,4.48,20.45,5.2,2.44.25,4.89.38,7.34.38,16.4,0,33.02-5.59,48.89-16.24.09,4.55,1.37,9.79,6.6,12.15,3.35,1.51,9.05,2.39,17.21-2.06,10.72-5.84,22.64-18.99,32.69-36.07,8.16-13.87,18.85-36.77,23.38-67.1,5.12-34.31,1.88-64.12-9.64-88.62Zm-92.46-68.64c2.11,0,4.24.11,6.37.33,16.86,1.76,32.02,10.24,42.68,23.9,10.72,13.73,15.61,31.04,13.77,48.73-3.56,34.18-31.53,59.77-63.83,59.77-2.11,0-4.24-.11-6.37-.33-16.86-1.76-32.02-10.24-42.68-23.9-10.72-13.73-15.61-31.04-13.77-48.73,3.56-34.18,31.53-59.77,63.83-59.77Zm88.26,155.19c-7.3,48.9-32.54,82.14-46.73,91.61-2.37,1.58-4.16,2.35-5.34,2.69.11-5.13,3.06-16.46,5.29-25.06,3.8-14.6,8.11-31.15,7.89-44.4-.06-3.87-3.29-6.96-7.11-6.88-3.87.06-6.95,3.25-6.88,7.11.19,11.34-3.87,26.9-7.44,40.64-.82,3.17-1.63,6.27-2.37,9.24-14.59,12.61-34.9,24.5-58.14,22.12-6.9-.71-13.57-2.72-19.92-5.8-.9-7.72-3.62-17.45-6.88-29.09-3.62-12.93-7.73-27.58-8.61-38.89-.3-3.85-3.66-6.73-7.52-6.44-3.85.3-6.74,3.67-6.44,7.52.99,12.68,5.29,28.04,9.08,41.58,2.92,10.42,7.2,25.69,6.69,31.24-3.73-1.21-13.44-7.87-25.28-25.74-7.95-12-22.05-37.24-27.15-71.45-3.31-22.23-2.24-43.49,3.19-63.2.02-.07.04-.14.05-.21,6.32-26.1,22.13-46.4,44.4-58.77-3.5,7.8-5.87,16.3-6.81,25.3-2.22,21.31,3.7,42.19,16.66,58.79,13.02,16.68,31.58,27.06,52.27,29.21,2.63.27,5.24.41,7.83.41,39.37,0,73.44-30.96,77.74-72.32.18-1.74.29-3.48.36-5.21.92,1.72,1.81,3.47,2.62,5.27.01.03.03.06.04.09,10.34,21.96,13.19,49.09,8.48,80.64Z"/>
      <path class="h" d="m205.6,71.11c-2.82-16.42-2.92-31.06-.33-44.76l.06-.41c1.17-11.19-6.99-21.25-18.18-22.41L154.37.11c-11.19-1.16-21.25,6.99-22.41,18.18v.15c-1.73,23.42-6.69,34.91-9.97,42.51l-.86,2.01-.08.75c-.33,3.13.8,6.16,3.1,8.31,2.31,2.16,5.42,3.1,8.55,2.57,15.3-2.59,46.48,1.32,59.49,6.23,1.15.43,2.33.65,3.52.65,1.82,0,3.62-.5,5.23-1.5,2.68-1.65,4.4-4.4,4.73-7.52l.07-.68-.12-.68Z"/>
      <path class="i" d="m161.75,106.62c3.32-2.64,4.36-7.48,3.18-11.55s-4.28-7.37-7.86-9.63c-5.53-3.49-12.43-4.75-18.84-3.43-13.32,2.73-22.6,16.15-23.8,29.7-.63,7.14.81,14.85,5.76,20.04,4.95,5.18,13.96,6.73,19.36,2.02,1.6-1.4,2.78-3.21,3.7-5.13,1.16-2.41,1.67-5.01,2.8-7.43s2.45-5,4.17-7.19c1.46-1.86,3.25-3.5,5.36-4.59,1.97-1.02,4.41-1.39,6.18-2.79Z"/>
      <g>
        <ellipse class="d" cx="206.28" cy="92.87" rx="16.17" ry="24.19" transform="translate(13.54 211.3) rotate(-55.81)"/>
        <ellipse cx="209.08" cy="88.74" rx="9.92" ry="14.84" transform="translate(18.17 211.81) rotate(-55.81)"/>
      </g>
      <g>
        <ellipse class="d" cx="119.9" cy="83.87" rx="24.19" ry="16.17" transform="translate(-22.86 51.79) rotate(-22.31)"/>
        <ellipse cx="118.01" cy="79.26" rx="14.84" ry="9.92" transform="translate(-21.25 50.72) rotate(-22.31)"/>
      </g>
      <g>
        <path class="h" d="m145.36,55.97c3.95-11.59,6.64-32.53,7.21-38.73"/>
        <path class="f" d="m143.43,64.25c4.21.99,8.56-1.36,9.98-5.53,4.41-12.95,7.14-35.39,7.63-40.69.43-4.67-3.01-8.81-7.69-9.24-4.67-.43-8.81,3.01-9.24,7.69-.57,6.16-3.23,26.33-6.79,36.77-1.51,4.44.86,9.27,5.3,10.79.27.09.54.17.8.23Z"/>
      </g>
    </g>
  </g>
</svg>