<?xml version="1.0" encoding="UTF-8"?>
<svg id="b" data-name="Layer 2" xmlns="http://www.w3.org/2000/svg" viewBox="0 0 302.59 325.08">
  <defs>
    <style>
      .d {
        fill: #fff;
      }

      .e {
        fill: #f2cf3d;
      }

      .f {
        fill: #e58739;
      }

      .g {
        fill: #f4b322;
      }

      .h {
        fill: #d66f29;
      }

      .i {
        fill: #fce965;
      }
    </style>
  </defs>
  <g id="c" data-name="Layer 1">
    <g>
      <path class="h" d="m103.99,217.42c-.23-.34-22.98-34.23-35.41-84.6-.72-2.93-3.24-5.06-6.24-5.3-3.01-.23-5.83,1.47-7,4.25-12.46,29.46-31.4,29.39-32.09,29.4-2.04-.16-3.96.6-5.41,2.06-1.45,1.46-2.08,3.49-1.91,5.54.02.26,2.03,26.09-13.17,37.65-2.53,1.93-3.45,5.32-2.22,8.26,1.22,2.94,4.27,4.68,7.43,4.24.47-.07,47.54-6.36,87.74,8.97.81.31,1.66.46,2.49.46,2.1,0,4.14-.94,5.49-2.66,1.9-2.4,2.02-5.75.3-8.28Z"/>
      <path class="f" d="m105.06,222.72s0-.04.01-.06c.06-.34.1-.67.12-1.01,0-.01,0-.03,0-.04.01-.33,0-.67-.04-1,0-.05-.01-.11-.02-.16-.04-.33-.11-.65-.19-.97,0-.02-.01-.04-.02-.07-.09-.31-.21-.61-.34-.91-.02-.04-.03-.08-.05-.12-.14-.3-.31-.6-.5-.88-.01-.02-.02-.04-.04-.06-.23-.34-22.98-34.23-35.41-84.6-.93-3.75-4.72-6.04-8.47-5.12-3.75.93-6.04,4.72-5.12,8.47,6.25,25.31,14.85,46.45,22.23,61.79l-50.28-35.52c-3.16-2.23-7.53-1.48-9.76,1.68-2.23,3.16-1.48,7.53,1.68,9.76l44.99,31.78c-30.54-4.25-56.32-.81-57.81-.6-3.83.53-6.5,4.07-5.97,7.9.53,3.83,4.07,6.5,7.9,5.97.47-.07,47.54-6.36,87.74,8.97.09.04.19.06.28.09.07.02.14.05.21.07.29.09.58.15.87.2.07.01.13.02.2.03.3.04.6.07.91.07,0,0,.01,0,.02,0,.05,0,.1,0,.15,0,.22,0,.43-.01.65-.04.11-.01.23-.04.34-.06.15-.02.3-.04.44-.08.14-.03.27-.08.4-.12.12-.04.24-.07.36-.11.15-.05.29-.12.43-.18.1-.04.2-.08.3-.13.15-.07.29-.15.43-.24.09-.05.18-.1.27-.16.14-.09.27-.19.41-.29.08-.06.17-.12.25-.19.13-.1.25-.21.37-.33.08-.08.16-.15.24-.24.11-.11.21-.23.32-.35.05-.05.1-.1.14-.16.03-.03.04-.07.07-.1.05-.07.11-.13.16-.2.35-.5.62-1.03.83-1.58.01-.04.03-.07.04-.11.12-.33.21-.66.27-.99Z"/>
      <path class="h" d="m298.13,94.32c-17.79-6.92-22.99-32.31-23.03-32.55-.39-2.02-1.51-3.82-3.31-4.83-1.8-1.01-3.81-1.22-5.74-.5-.76.24-18.95,5.5-39.05-19.39-1.9-2.35-5.08-3.21-7.9-2.16-2.82,1.06-4.65,3.8-4.54,6.82,1.94,51.69-10.5,90.46-10.71,91.08-.96,2.9.08,6.09,2.57,7.88,1.22.88,2.65,1.31,4.08,1.31s2.96-.47,4.2-1.4c34.33-25.75,81.4-32.75,81.87-32.82,3.15-.45,5.6-2.97,5.97-6.13.37-3.16-1.45-6.17-4.41-7.33Z"/>
      <path class="f" d="m302.52,99.86c-.54-3.83-4.09-6.49-7.92-5.94-1.49.21-27.22,4.02-55.41,16.52l34.48-42.95c2.42-3.01,1.94-7.42-1.08-9.84-3.01-2.42-7.42-1.94-9.84,1.08l-38.54,48.01c2.87-16.78,5.31-39.48,4.33-65.53-.14-3.86-3.42-6.88-7.26-6.73-3.86.14-6.88,3.39-6.73,7.26,1.94,51.85-10.58,90.7-10.71,91.08,0,.02-.01.05-.02.07-.1.32-.18.65-.24.98,0,.05-.01.1-.02.15-.04.31-.07.62-.07.92,0,.04,0,.08,0,.11,0,.32.03.64.08.96.01.07.02.14.03.21.06.32.13.63.23.93.01.03.02.06.03.09.1.29.22.58.36.86.02.04.04.08.06.12.15.29.32.57.51.84.03.05.07.09.11.14.19.25.39.5.62.73.02.02.03.03.04.05.17.17.36.34.55.49.05.04.1.06.15.1.05.04.1.09.15.13.13.09.27.16.41.25.14.09.28.18.43.26.19.1.4.18.6.26.15.06.3.13.45.18.22.07.44.12.66.17.14.03.29.08.43.1.32.05.64.07.96.08.05,0,.09.01.14.01.33,0,.66-.03.99-.08.09-.01.17-.03.26-.04.29-.05.58-.12.86-.21.04-.01.08-.02.11-.03.32-.11.63-.24.93-.39.06-.03.13-.07.19-.1.27-.15.53-.31.78-.49.03-.02.06-.03.09-.06,34.33-25.75,81.4-32.75,81.87-32.82,3.82-.55,6.48-4.09,5.94-7.92Z"/>
      <path class="e" d="m265.62,148.61c-8.94-36.92-34.98-61.66-68.83-72.08-14.68-17.22-36.81-27.15-60.42-24.69-28.74,2.99-51.57,23.49-59.79,50.28-7.85,7.9-14.37,17.23-19.22,27.92-9.03,19.18-14.83,46.11-9.07,84.65,9.53,63.84,49.59,106.16,63.47,99.88,3.91-1.77,2.64-10.56-.14-22.17,19.31,17.21,42,27.67,65.13,25.29,9.15-.94,17.82-3.83,25.92-8.27-.06,3.66.63,6.33,2.42,7.62,11.97,8.62,54.38-38.52,63.89-102.35,4.05-27.17,1.22-49.45-3.36-66.09Z"/>
      <path class="g" d="m272.39,146.86c-6.23-25.64-20.6-46.93-41.55-61.57-9.07-6.34-19.19-11.29-30.1-14.84-16.13-17.95-39.88-28.19-65.1-25.57-20.68,2.15-39.25,12.53-52.27,29.21-5.78,7.4-10.15,15.66-13.03,24.42-7.91,8.25-14.46,17.83-19.34,28.6-11.52,24.5-14.77,54.32-9.64,88.62,4.53,30.33,15.21,53.23,23.38,67.1,10.05,17.08,21.97,30.22,32.69,36.07,8.16,4.44,13.86,3.57,17.21,2.06,5.22-2.36,6.5-7.59,6.6-12.14,15.86,10.64,32.48,16.23,48.89,16.23,2.45,0,4.9-.12,7.34-.38,6.99-.72,13.83-2.47,20.46-5.19.79,1.25,1.8,2.34,3.07,3.25,1.7,1.22,4.16,2.35,7.46,2.35,2.11,0,4.55-.46,7.36-1.65,19.21-8.11,51.65-51.13,60.08-107.71,3.59-24.14,2.42-47.31-3.51-68.87ZM94.41,82.7c10.66-13.66,25.82-22.14,42.68-23.9,2.14-.22,4.26-.33,6.37-.33,32.3,0,60.27,25.59,63.83,59.77,1.84,17.69-3.05,34.99-13.77,48.73-10.66,13.66-25.82,22.14-42.68,23.9-34.92,3.64-66.41-23.03-70.2-59.44-1.84-17.69,3.05-34.99,13.77-48.73Zm167.64,130.96c-5.09,34.21-19.2,59.45-27.15,71.45-11.84,17.87-21.55,24.54-25.28,25.74-.5-5.55,3.77-20.82,6.69-31.24,3.79-13.55,8.1-28.9,9.08-41.58.3-3.85-2.58-7.22-6.44-7.52-3.86-.29-7.22,2.58-7.52,6.44-.88,11.31-4.99,25.96-8.61,38.89-3.26,11.63-5.98,21.36-6.88,29.08-6.36,3.08-13.02,5.1-19.92,5.81-2.03.21-4.03.31-6.01.31-20.73,0-38.81-10.92-52.13-22.43-.74-2.98-1.54-6.08-2.37-9.25-3.58-13.74-7.63-29.31-7.44-40.64.06-3.87-3.02-7.05-6.88-7.11-.04,0-.08,0-.12,0-3.81,0-6.93,3.06-7,6.88-.22,13.24,4.09,29.8,7.89,44.4,2.24,8.59,5.18,19.92,5.29,25.05-1.19-.34-2.97-1.1-5.34-2.68-14.19-9.47-39.43-42.71-46.73-91.61-4.71-31.55-1.86-58.68,8.48-80.64.01-.03.03-.06.04-.09.82-1.81,1.7-3.57,2.62-5.3.07,1.74.18,3.49.36,5.24,4.31,41.37,38.37,72.32,77.74,72.32,2.59,0,5.2-.13,7.83-.41,20.68-2.15,39.25-12.53,52.27-29.21,12.96-16.6,18.88-37.48,16.66-58.79-.94-9-3.3-17.5-6.81-25.3,22.28,12.37,38.09,32.67,44.41,58.77.02.07.04.14.05.21,5.42,19.7,6.5,40.96,3.19,63.2Z"/>
      <path class="h" d="m181.54,63.73l-.08-.75-.87-2.02c-3.28-7.6-8.24-19.09-9.95-42.51v-.15c-.58-5.42-3.22-10.3-7.45-13.73S153.64-.45,148.22.11l-32.79,3.41c-5.42.56-10.3,3.21-13.73,7.44-3.43,4.23-5.02,9.55-4.45,14.97l.06.41c2.6,13.71,2.49,28.35-.33,44.76l-.12.68.07.68c.33,3.13,2.05,5.87,4.73,7.52,1.61.99,3.41,1.5,5.23,1.5,1.18,0,2.37-.21,3.52-.65,13.01-4.91,44.19-8.82,59.49-6.23,3.13.53,6.24-.41,8.55-2.57,2.29-2.15,3.42-5.18,3.1-8.31Z"/>
      <path class="i" d="m141.75,103.19c2.72-3.25,2.77-8.21.79-11.95-1.98-3.74-5.67-6.36-9.64-7.85-6.12-2.3-13.13-2.15-19.14.43-12.5,5.35-18.89,20.37-17.34,33.88.82,7.12,3.79,14.39,9.68,18.47,5.89,4.08,15.03,3.78,19.37-1.92,1.28-1.69,2.08-3.71,2.59-5.77.65-2.6.63-5.25,1.25-7.85s1.4-5.39,2.63-7.88c1.05-2.11,2.48-4.09,4.33-5.58,1.72-1.4,4.04-2.25,5.49-3.98Z"/>
      <g>
        <ellipse class="d" cx="96.31" cy="92.87" rx="24.19" ry="16.17" transform="translate(-35.54 70.18) rotate(-34.19)"/>
        <ellipse cx="93.51" cy="88.75" rx="14.84" ry="9.92" transform="translate(-33.71 67.89) rotate(-34.19)"/>
      </g>
      <g>
        <ellipse class="d" cx="182.69" cy="83.87" rx="16.17" ry="24.19" transform="translate(35.75 221.06) rotate(-67.69)"/>
        <ellipse cx="184.58" cy="79.26" rx="9.92" ry="14.84" transform="translate(41.19 219.95) rotate(-67.69)"/>
      </g>
      <g>
        <path class="h" d="m118.24,61.21c1.19-12.19-1-33.19-1.86-39.35"/>
        <path class="f" d="m118.25,69.71c-.28,0-.55-.01-.83-.04-4.67-.46-8.09-4.61-7.64-9.28,1.07-10.97-.96-31.21-1.82-37.35-.65-4.65,2.59-8.95,7.24-9.6,4.65-.65,8.95,2.59,9.6,7.24.74,5.27,3.23,27.75,1.91,41.36-.43,4.39-4.13,7.68-8.45,7.68Z"/>
      </g>
    </g>
  </g>
</svg>